%TF.GenerationSoftware,KiCad,Pcbnew,10.0.1*%
%TF.CreationDate,2026-06-15T18:23:04+02:00*%
%TF.ProjectId,CableProbe,4361626c-6550-4726-9f62-652e6b696361,rev?*%
%TF.SameCoordinates,Original*%
%TF.FileFunction,Copper,L1,Top*%
%TF.FilePolarity,Positive*%
%FSLAX46Y46*%
G04 Gerber Fmt 4.6, Leading zero omitted, Abs format (unit mm)*
G04 Created by KiCad (PCBNEW 10.0.1) date 2026-06-15 18:23:04*
%MOMM*%
%LPD*%
G01*
G04 APERTURE LIST*
G04 Aperture macros list*
%AMRoundRect*
0 Rectangle with rounded corners*
0 $1 Rounding radius*
0 $2 $3 $4 $5 $6 $7 $8 $9 X,Y pos of 4 corners*
0 Add a 4 corners polygon primitive as box body*
4,1,4,$2,$3,$4,$5,$6,$7,$8,$9,$2,$3,0*
0 Add four circle primitives for the rounded corners*
1,1,$1+$1,$2,$3*
1,1,$1+$1,$4,$5*
1,1,$1+$1,$6,$7*
1,1,$1+$1,$8,$9*
0 Add four rect primitives between the rounded corners*
20,1,$1+$1,$2,$3,$4,$5,0*
20,1,$1+$1,$4,$5,$6,$7,0*
20,1,$1+$1,$6,$7,$8,$9,0*
20,1,$1+$1,$8,$9,$2,$3,0*%
G04 Aperture macros list end*
%TA.AperFunction,ComponentPad*%
%ADD10C,1.600000*%
%TD*%
%TA.AperFunction,ComponentPad*%
%ADD11O,2.000000X1.600000*%
%TD*%
%TA.AperFunction,SMDPad,CuDef*%
%ADD12RoundRect,1.000000X-1.000000X-3.000000X1.000000X-3.000000X1.000000X3.000000X-1.000000X3.000000X0*%
%TD*%
%TA.AperFunction,ComponentPad*%
%ADD13O,2.690000X4.680000*%
%TD*%
%TA.AperFunction,ComponentPad*%
%ADD14R,2.000000X1.200000*%
%TD*%
%TA.AperFunction,ComponentPad*%
%ADD15O,2.000000X1.200000*%
%TD*%
%TA.AperFunction,ViaPad*%
%ADD16C,0.600000*%
%TD*%
%TA.AperFunction,Conductor*%
%ADD17C,0.200000*%
%TD*%
G04 APERTURE END LIST*
D10*
%TO.P,R3,1*%
%TO.N,/CC1*%
X58790000Y-55050000D03*
%TO.P,R3,2*%
%TO.N,Net-(U1-CC1)*%
X66410000Y-55050000D03*
%TD*%
%TO.P,R2,1*%
%TO.N,/GND_c*%
X58815000Y-51775000D03*
%TO.P,R2,2*%
%TO.N,Net-(U1-GND)*%
X66435000Y-51775000D03*
%TD*%
%TO.P,R6,1*%
%TO.N,/CC2*%
X58890000Y-65700000D03*
%TO.P,R6,2*%
%TO.N,Net-(U1-CC2)*%
X66510000Y-65700000D03*
%TD*%
D11*
%TO.P,U1,1,VBUS_1*%
%TO.N,Net-(U1-VBUS)*%
X92200000Y-54600000D03*
%TO.P,U1,2,GND_2*%
%TO.N,Net-(U1-GND)*%
X92200000Y-52060000D03*
%TO.P,U1,3,CC1_3*%
%TO.N,Net-(U1-CC1)*%
X92200000Y-49520000D03*
%TO.P,U1,4,D-_4*%
%TO.N,Net-(U1-D-)*%
X92200000Y-46980000D03*
%TO.P,U1,5,D+_5*%
%TO.N,Net-(U1-D+)*%
X92200000Y-44440000D03*
%TO.P,U1,6,CC2_6*%
%TO.N,Net-(U1-CC2)*%
X92200000Y-41900000D03*
%TD*%
D10*
%TO.P,R4,1*%
%TO.N,/D-*%
X58815000Y-58525000D03*
%TO.P,R4,2*%
%TO.N,Net-(U1-D-)*%
X66435000Y-58525000D03*
%TD*%
%TO.P,R5,1*%
%TO.N,/D+*%
X58865000Y-61875000D03*
%TO.P,R5,2*%
%TO.N,Net-(U1-D+)*%
X66485000Y-61875000D03*
%TD*%
D12*
%TO.P,REF\u002A\u002A,1*%
%TO.N,+5V*%
X58900000Y-77750000D03*
%TD*%
D10*
%TO.P,R1,1*%
%TO.N,/VBUS*%
X58800000Y-48500000D03*
%TO.P,R1,2*%
%TO.N,Net-(U1-VBUS)*%
X66420000Y-48500000D03*
%TD*%
D12*
%TO.P,REF\u002A\u002A,1*%
%TO.N,GND*%
X67350000Y-77600000D03*
%TD*%
D13*
%TO.P,Brd1,*%
%TO.N,*%
X103900000Y-48900000D03*
X79800000Y-48900000D03*
X79800000Y-71000000D03*
X103900000Y-71100000D03*
D11*
%TO.P,Brd1,1,GND_1*%
%TO.N,GND*%
X79900000Y-56080000D03*
%TO.P,Brd1,2,VCC_2*%
%TO.N,+5V*%
X79900000Y-58620000D03*
%TO.P,Brd1,3,SCL_3*%
%TO.N,/dis_scl*%
X79900000Y-61160000D03*
%TO.P,Brd1,4,SDA_4*%
%TO.N,/dis_sda*%
X79900000Y-63700000D03*
%TD*%
%TO.P,U2,6,CC2_6*%
%TO.N,/CC2_2*%
X92190000Y-65520000D03*
%TO.P,U2,5,D+_5*%
%TO.N,/D+_2*%
X92190000Y-68060000D03*
%TO.P,U2,4,D-_4*%
%TO.N,/D-_2*%
X92190000Y-70600000D03*
%TO.P,U2,3,CC1_3*%
%TO.N,/CC1_2*%
X92190000Y-73140000D03*
%TO.P,U2,2,GND_2*%
%TO.N,/GND_c_2*%
X92190000Y-75680000D03*
%TO.P,U2,1,VBUS_1*%
%TO.N,/VBUS_2*%
X92190000Y-78220000D03*
%TD*%
D14*
%TO.P,U3,1,3V3_1*%
%TO.N,+3.3V*%
X75850000Y-36700000D03*
D15*
%TO.P,U3,2,CHIP_PU_2*%
%TO.N,unconnected-(U3-CHIP_PU-Pad2)*%
X75850000Y-39240000D03*
%TO.P,U3,3,SENSOR_VP/GPIO36/ADC1_CH0_3*%
%TO.N,unconnected-(U3-SENSOR_VP{slash}GPIO36{slash}ADC1_CH0-Pad3)*%
X75850000Y-41780000D03*
%TO.P,U3,4,SENSOR_VN/GPIO39/ADC1_CH3_4*%
%TO.N,unconnected-(U3-SENSOR_VN{slash}GPIO39{slash}ADC1_CH3-Pad4)*%
X75850000Y-44320000D03*
%TO.P,U3,5,VDET_1/GPIO34/ADC1_CH6_5*%
%TO.N,/VBUS_2*%
X75850000Y-46860000D03*
%TO.P,U3,6,VDET_2/GPIO35/ADC1_CH7_6*%
%TO.N,/GND_c_2*%
X75850000Y-49400000D03*
%TO.P,U3,7,32K_XP/GPIO32/ADC1_CH4_7*%
%TO.N,unconnected-(U3-32K_XP{slash}GPIO32{slash}ADC1_CH4-Pad7)*%
X75850000Y-51940000D03*
%TO.P,U3,8,32K_XN/GPIO33/ADC1_CH5_8*%
%TO.N,unconnected-(U3-32K_XN{slash}GPIO33{slash}ADC1_CH5-Pad8)*%
X75850000Y-54480000D03*
%TO.P,U3,9,DAC_1/ADC2_CH8/GPIO25_9*%
%TO.N,unconnected-(U3-DAC_1{slash}ADC2_CH8{slash}GPIO25-Pad9)*%
X75850000Y-57020000D03*
%TO.P,U3,10,DAC_2/ADC2_CH9/GPIO26_10*%
%TO.N,unconnected-(U3-DAC_2{slash}ADC2_CH9{slash}GPIO26-Pad10)*%
X75850000Y-59560000D03*
%TO.P,U3,11,ADC2_CH7/GPIO27_11*%
%TO.N,unconnected-(U3-ADC2_CH7{slash}GPIO27-Pad11)*%
X75850000Y-62100000D03*
%TO.P,U3,12,MTMS/GPIO14/ADC2_CH6_12*%
%TO.N,/D+*%
X75850000Y-64640000D03*
%TO.P,U3,13,MTDI/GPIO12/ADC2_CH5_13*%
%TO.N,/D+_2*%
X75850000Y-67180000D03*
%TO.P,U3,14,GND_14*%
%TO.N,GND*%
X75850000Y-69720000D03*
%TO.P,U3,15,MTCK/GPIO13/ADC2_CH4_15*%
%TO.N,/D-*%
X75850000Y-72260000D03*
%TO.P,U3,16,SD_DATA2/GPIO9_16*%
%TO.N,unconnected-(U3-SD_DATA2{slash}GPIO9-Pad16)*%
X75850000Y-74800000D03*
%TO.P,U3,17,SD_DATA3/GPIO10_17*%
%TO.N,unconnected-(U3-SD_DATA3{slash}GPIO10-Pad17)*%
X75850000Y-77340000D03*
%TO.P,U3,18,CMD_18*%
%TO.N,unconnected-(U3-CMD-Pad18)*%
X75850000Y-79880000D03*
%TO.P,U3,19,5V_19*%
%TO.N,+5V*%
X75850000Y-82420000D03*
%TO.P,U3,20,SD_CLK/GPIO6_20*%
%TO.N,unconnected-(U3-SD_CLK{slash}GPIO6-Pad20)*%
X50453680Y-82417280D03*
%TO.P,U3,21,SD_DATA0/GPIO7_21*%
%TO.N,unconnected-(U3-SD_DATA0{slash}GPIO7-Pad21)*%
X50453680Y-79877280D03*
%TO.P,U3,22,SD_DATA1/GPIO8_22*%
%TO.N,unconnected-(U3-SD_DATA1{slash}GPIO8-Pad22)*%
X50450000Y-77340000D03*
%TO.P,U3,23,MTDO/GPIO15/ADC2_CH3_23*%
%TO.N,/D-_2*%
X50450000Y-74800000D03*
%TO.P,U3,24,ADC2_CH2/GPIO2_24*%
%TO.N,unconnected-(U3-ADC2_CH2{slash}GPIO2-Pad24)*%
X50450000Y-72260000D03*
%TO.P,U3,25,GPIO0/BOOT/ADC2_CH1_25*%
%TO.N,unconnected-(U3-GPIO0{slash}BOOT{slash}ADC2_CH1-Pad25)*%
X50450000Y-69720000D03*
%TO.P,U3,26,ADC2_CH0/GPIO4_26*%
%TO.N,unconnected-(U3-ADC2_CH0{slash}GPIO4-Pad26)*%
X50450000Y-67180000D03*
%TO.P,U3,27,GPIO16_27*%
%TO.N,/VBUS*%
X50450000Y-64640000D03*
%TO.P,U3,28,GPIO17_28*%
%TO.N,/GND_c*%
X50450000Y-62100000D03*
%TO.P,U3,29,GPIO5_29*%
%TO.N,/CC2_2*%
X50450000Y-59560000D03*
%TO.P,U3,30,GPIO18_30*%
%TO.N,/CC1*%
X50450000Y-57020000D03*
%TO.P,U3,31,GPIO19_31*%
%TO.N,/CC1_2*%
X50450000Y-54480000D03*
%TO.P,U3,32,GND_32*%
%TO.N,GND*%
X50450000Y-51940000D03*
%TO.P,U3,33,GPIO21_33*%
%TO.N,/dis_sda*%
X50450000Y-49400000D03*
%TO.P,U3,34,U0RXD/GPIO3_34*%
%TO.N,unconnected-(U3-U0RXD{slash}GPIO3-Pad34)*%
X50450000Y-46860000D03*
%TO.P,U3,35,U0TXD/GPIO1_35*%
%TO.N,unconnected-(U3-U0TXD{slash}GPIO1-Pad35)*%
X50450000Y-44320000D03*
%TO.P,U3,36,GPIO22_36*%
%TO.N,/dis_scl*%
X50450000Y-41780000D03*
%TO.P,U3,37,GPIO23_37*%
%TO.N,/CC2*%
X50450000Y-39240000D03*
%TO.P,U3,38,GND_38*%
%TO.N,GND*%
X50450000Y-36700000D03*
%TD*%
D16*
%TO.N,GND*%
X70700000Y-54850000D03*
X62800000Y-46650000D03*
%TO.N,/dis_sda*%
X73300000Y-61150000D03*
X65850000Y-45650000D03*
%TO.N,GND*%
X73800000Y-71450000D03*
X79200000Y-75950000D03*
X83350000Y-72850000D03*
X86900000Y-69050000D03*
X82550000Y-56450000D03*
%TO.N,+5V*%
X78100000Y-60100000D03*
X77450000Y-64500000D03*
X58900000Y-77750000D03*
%TD*%
%TO.N,GND*%
D17*
X73050000Y-55150000D02*
X73280000Y-55380000D01*
X73280000Y-55380000D02*
X79200000Y-55380000D01*
X79200000Y-55380000D02*
X79900000Y-56080000D01*
X71000000Y-55150000D02*
X73050000Y-55150000D01*
X70700000Y-54850000D02*
X71000000Y-55150000D01*
X55740000Y-46650000D02*
X62800000Y-46650000D01*
X50450000Y-51940000D02*
X55740000Y-46650000D01*
%TO.N,/dis_scl*%
X53890000Y-38340000D02*
X50450000Y-41780000D01*
X94700000Y-42644365D02*
X90395635Y-38340000D01*
X94700000Y-55552690D02*
X94700000Y-42644365D01*
X89092690Y-61160000D02*
X94700000Y-55552690D01*
X79900000Y-61160000D02*
X89092690Y-61160000D01*
X90395635Y-38340000D02*
X53890000Y-38340000D01*
%TO.N,/dis_sda*%
X78600000Y-60704365D02*
X78600000Y-62400000D01*
X78700000Y-60604365D02*
X78600000Y-60704365D01*
X78700000Y-59851471D02*
X78700000Y-60604365D01*
X78348529Y-59500000D02*
X78700000Y-59851471D01*
X78600000Y-62400000D02*
X79900000Y-63700000D01*
X76201471Y-61150000D02*
X77851471Y-59500000D01*
X77851471Y-59500000D02*
X78348529Y-59500000D01*
X73300000Y-61150000D02*
X76201471Y-61150000D01*
X54200000Y-45650000D02*
X65850000Y-45650000D01*
X50450000Y-49400000D02*
X54200000Y-45650000D01*
%TO.N,GND*%
X71050000Y-73900000D02*
X75817208Y-73900000D01*
X67350000Y-77600000D02*
X71050000Y-73900000D01*
X73800000Y-71882792D02*
X73800000Y-71450000D01*
X75817208Y-73900000D02*
X73800000Y-71882792D01*
X77150000Y-73900000D02*
X75817208Y-73900000D01*
X79200000Y-75950000D02*
X77150000Y-73900000D01*
X86900000Y-69300000D02*
X83350000Y-72850000D01*
X86900000Y-69050000D02*
X86900000Y-69300000D01*
X82180000Y-56080000D02*
X82550000Y-56450000D01*
X79900000Y-56080000D02*
X82180000Y-56080000D01*
%TO.N,+5V*%
X77450000Y-60750000D02*
X78100000Y-60100000D01*
X77450000Y-64500000D02*
X77450000Y-60750000D01*
%TO.N,/D-_2*%
X79718619Y-74240000D02*
X76098619Y-70620000D01*
X92845635Y-74240000D02*
X79718619Y-74240000D01*
X93490000Y-73595635D02*
X92845635Y-74240000D01*
X93490000Y-71900000D02*
X93490000Y-73595635D01*
X76098619Y-70620000D02*
X54630000Y-70620000D01*
X92190000Y-70600000D02*
X93490000Y-71900000D01*
X54630000Y-70620000D02*
X50450000Y-74800000D01*
%TO.N,/D+_2*%
X91310000Y-67180000D02*
X75850000Y-67180000D01*
X92190000Y-68060000D02*
X91310000Y-67180000D01*
%TO.N,/CC1_2*%
X87130000Y-68080000D02*
X92190000Y-73140000D01*
X53762792Y-68080000D02*
X87130000Y-68080000D01*
X49677208Y-65540000D02*
X51222792Y-65540000D01*
X51222792Y-65540000D02*
X53762792Y-68080000D01*
X49150000Y-65012792D02*
X49677208Y-65540000D01*
X49150000Y-55780000D02*
X49150000Y-65012792D01*
X50450000Y-54480000D02*
X49150000Y-55780000D01*
%TO.N,/CC2_2*%
X92170000Y-65540000D02*
X92190000Y-65520000D01*
X75515686Y-65540000D02*
X92170000Y-65540000D01*
X73855686Y-67200000D02*
X75515686Y-65540000D01*
X62634365Y-67200000D02*
X73855686Y-67200000D01*
X57765000Y-62330635D02*
X62634365Y-67200000D01*
X59915000Y-59269365D02*
X57765000Y-61419365D01*
X59915000Y-48059365D02*
X59915000Y-59269365D01*
X58344365Y-47400000D02*
X59255635Y-47400000D01*
X57290000Y-52720000D02*
X57290000Y-48454365D01*
X57290000Y-48454365D02*
X58344365Y-47400000D01*
X57765000Y-61419365D02*
X57765000Y-62330635D01*
X50450000Y-59560000D02*
X57290000Y-52720000D01*
X59255635Y-47400000D02*
X59915000Y-48059365D01*
%TO.N,/D+*%
X63790000Y-66800000D02*
X73690000Y-66800000D01*
X58865000Y-61875000D02*
X63790000Y-66800000D01*
X73690000Y-66800000D02*
X75850000Y-64640000D01*
%TO.N,/VBUS*%
X57690000Y-49610000D02*
X57690000Y-57400000D01*
X57690000Y-57400000D02*
X50450000Y-64640000D01*
X58800000Y-48500000D02*
X57690000Y-49610000D01*
%TO.N,Net-(U1-CC2)*%
X70118679Y-42680000D02*
X91420000Y-42680000D01*
X64910000Y-47888679D02*
X70118679Y-42680000D01*
X64910000Y-64100000D02*
X64910000Y-47888679D01*
X66510000Y-65700000D02*
X64910000Y-64100000D01*
X91420000Y-42680000D02*
X92200000Y-41900000D01*
%TO.N,Net-(U1-D+)*%
X68144365Y-45220000D02*
X91420000Y-45220000D01*
X65310000Y-48054365D02*
X68144365Y-45220000D01*
X65310000Y-60700000D02*
X65310000Y-48054365D01*
X66485000Y-61875000D02*
X65310000Y-60700000D01*
X91420000Y-45220000D02*
X92200000Y-44440000D01*
%TO.N,Net-(U1-D-)*%
X89967005Y-59720000D02*
X94300000Y-55387005D01*
X79244365Y-59720000D02*
X89967005Y-59720000D01*
X94300000Y-55387005D02*
X94300000Y-49080000D01*
X78049365Y-58525000D02*
X79244365Y-59720000D01*
X66435000Y-58525000D02*
X78049365Y-58525000D01*
X94300000Y-49080000D02*
X92200000Y-46980000D01*
%TO.N,Net-(U1-CC1)*%
X93900000Y-51220000D02*
X92200000Y-49520000D01*
X93900000Y-55221320D02*
X93900000Y-51220000D01*
X91941320Y-57180000D02*
X93900000Y-55221320D01*
X67209999Y-55849999D02*
X77914364Y-55849999D01*
X77914364Y-55849999D02*
X79244365Y-57180000D01*
X79244365Y-57180000D02*
X91941320Y-57180000D01*
X66410000Y-55050000D02*
X67209999Y-55849999D01*
%TO.N,Net-(U1-GND)*%
X92855635Y-55700000D02*
X93500000Y-55055635D01*
X82712933Y-55700000D02*
X92855635Y-55700000D01*
X80592933Y-53580000D02*
X82712933Y-55700000D01*
X93500000Y-55055635D02*
X93500000Y-53360000D01*
X68240000Y-53580000D02*
X80592933Y-53580000D01*
X66435000Y-51775000D02*
X68240000Y-53580000D01*
X93500000Y-53360000D02*
X92200000Y-52060000D01*
%TO.N,Net-(U1-VBUS)*%
X82178619Y-54600000D02*
X92200000Y-54600000D01*
X78618619Y-51040000D02*
X82178619Y-54600000D01*
X68960000Y-51040000D02*
X78618619Y-51040000D01*
X66420000Y-48500000D02*
X68960000Y-51040000D01*
%TO.N,GND*%
X49150000Y-50640000D02*
X50450000Y-51940000D01*
X50450000Y-36700000D02*
X49150000Y-38000000D01*
X49150000Y-38000000D02*
X49150000Y-50640000D01*
%TD*%
M02*
