M48
; DRILL file KiCad 10.0.1 date 2026-06-15T18:23:02
; FORMAT={-:-/ absolute / metric / decimal}
; #@! TF.CreationDate,2026-06-15T18:23:02+02:00
; #@! TF.GenerationSoftware,Kicad,Pcbnew,10.0.1
; #@! TF.FileFunction,Plated,1,2,PTH
FMAT,2
METRIC
; #@! TA.AperFunction,Plated,PTH,ViaDrill
T1C0.300
; #@! TA.AperFunction,Plated,PTH,ComponentDrill
T2C0.800
; #@! TA.AperFunction,Plated,PTH,ComponentDrill
T3C1.000
; #@! TA.AperFunction,Plated,PTH,ComponentDrill
T4C2.500
%
G90
G05
T1
X58.9Y-77.75
X62.8Y-46.65
X65.85Y-45.65
X70.7Y-54.85
X73.3Y-61.15
X73.8Y-71.45
X77.45Y-64.5
X78.1Y-60.1
X79.2Y-75.95
X82.55Y-56.45
X83.35Y-72.85
X86.9Y-69.05
T2
X50.45Y-36.7
X50.45Y-39.24
X50.45Y-41.78
X50.45Y-44.32
X50.45Y-46.86
X50.45Y-49.4
X50.45Y-51.94
X50.45Y-54.48
X50.45Y-57.02
X50.45Y-59.56
X50.45Y-62.1
X50.45Y-64.64
X50.45Y-67.18
X50.45Y-69.72
X50.45Y-72.26
X50.45Y-74.8
X50.45Y-77.34
X50.454Y-79.877
X50.454Y-82.417
X58.79Y-55.05
X58.8Y-48.5
X58.815Y-51.775
X58.815Y-58.525
X58.865Y-61.875
X58.89Y-65.7
X66.41Y-55.05
X66.42Y-48.5
X66.435Y-51.775
X66.435Y-58.525
X66.485Y-61.875
X66.51Y-65.7
X75.85Y-36.7
X75.85Y-39.24
X75.85Y-41.78
X75.85Y-44.32
X75.85Y-46.86
X75.85Y-49.4
X75.85Y-51.94
X75.85Y-54.48
X75.85Y-57.02
X75.85Y-59.56
X75.85Y-62.1
X75.85Y-64.64
X75.85Y-67.18
X75.85Y-69.72
X75.85Y-72.26
X75.85Y-74.8
X75.85Y-77.34
X75.85Y-79.88
X75.85Y-82.42
T3
X79.9Y-56.08
X79.9Y-58.62
X79.9Y-61.16
X79.9Y-63.7
X92.19Y-65.52
X92.19Y-68.06
X92.19Y-70.6
X92.19Y-73.14
X92.19Y-75.68
X92.19Y-78.22
X92.2Y-41.9
X92.2Y-44.44
X92.2Y-46.98
X92.2Y-49.52
X92.2Y-52.06
X92.2Y-54.6
T4
G00X79.8Y-49.9
M15
G01X79.8Y-47.9
M16
G05
G00X79.8Y-72.0
M15
G01X79.8Y-70.0
M16
G05
G00X103.9Y-49.9
M15
G01X103.9Y-47.9
M16
G05
G00X103.9Y-72.1
M15
G01X103.9Y-70.1
M16
G05
M30
