%TF.GenerationSoftware,KiCad,Pcbnew,10.0.1*%
%TF.CreationDate,2026-06-15T18:23:04+02:00*%
%TF.ProjectId,CableProbe,4361626c-6550-4726-9f62-652e6b696361,rev?*%
%TF.SameCoordinates,Original*%
%TF.FileFunction,Soldermask,Top*%
%TF.FilePolarity,Negative*%
%FSLAX46Y46*%
G04 Gerber Fmt 4.6, Leading zero omitted, Abs format (unit mm)*
G04 Created by KiCad (PCBNEW 10.0.1) date 2026-06-15 18:23:04*
%MOMM*%
%LPD*%
G01*
G04 APERTURE LIST*
G04 Aperture macros list*
%AMRoundRect*
0 Rectangle with rounded corners*
0 $1 Rounding radius*
0 $2 $3 $4 $5 $6 $7 $8 $9 X,Y pos of 4 corners*
0 Add a 4 corners polygon primitive as box body*
4,1,4,$2,$3,$4,$5,$6,$7,$8,$9,$2,$3,0*
0 Add four circle primitives for the rounded corners*
1,1,$1+$1,$2,$3*
1,1,$1+$1,$4,$5*
1,1,$1+$1,$6,$7*
1,1,$1+$1,$8,$9*
0 Add four rect primitives between the rounded corners*
20,1,$1+$1,$2,$3,$4,$5,0*
20,1,$1+$1,$4,$5,$6,$7,0*
20,1,$1+$1,$6,$7,$8,$9,0*
20,1,$1+$1,$8,$9,$2,$3,0*%
G04 Aperture macros list end*
%ADD10C,1.600000*%
%ADD11C,2.100000*%
%ADD12O,2.000000X1.600000*%
%ADD13RoundRect,1.000000X-1.000000X-3.000000X1.000000X-3.000000X1.000000X3.000000X-1.000000X3.000000X0*%
%ADD14O,2.690000X4.680000*%
%ADD15R,2.000000X1.200000*%
%ADD16O,2.000000X1.200000*%
G04 APERTURE END LIST*
D10*
%TO.C,R3*%
X58790000Y-55050000D03*
X66410000Y-55050000D03*
%TD*%
D11*
%TO.C,M2*%
X50900000Y-32325000D03*
%TD*%
%TO.C,M3*%
X83750000Y-79800000D03*
%TD*%
D10*
%TO.C,R2*%
X58815000Y-51775000D03*
X66435000Y-51775000D03*
%TD*%
%TO.C,R6*%
X58890000Y-65700000D03*
X66510000Y-65700000D03*
%TD*%
D12*
%TO.C,U1*%
X92200000Y-54600000D03*
X92200000Y-52060000D03*
X92200000Y-49520000D03*
X92200000Y-46980000D03*
X92200000Y-44440000D03*
X92200000Y-41900000D03*
%TD*%
D10*
%TO.C,R4*%
X58815000Y-58525000D03*
X66435000Y-58525000D03*
%TD*%
%TO.C,R5*%
X58865000Y-61875000D03*
X66485000Y-61875000D03*
%TD*%
D13*
%TO.C,REF\u002A\u002A*%
X58900000Y-77750000D03*
%TD*%
D10*
%TO.C,R1*%
X58800000Y-48500000D03*
X66420000Y-48500000D03*
%TD*%
D11*
%TO.C,M1*%
X84150000Y-40200000D03*
%TD*%
D13*
%TO.C,REF\u002A\u002A*%
X67350000Y-77600000D03*
%TD*%
D14*
%TO.C,Brd1*%
X103900000Y-48900000D03*
X79800000Y-48900000D03*
X79800000Y-71000000D03*
X103900000Y-71100000D03*
D12*
X79900000Y-56080000D03*
X79900000Y-58620000D03*
X79900000Y-61160000D03*
X79900000Y-63700000D03*
%TD*%
%TO.C,U2*%
X92190000Y-65520000D03*
X92190000Y-68060000D03*
X92190000Y-70600000D03*
X92190000Y-73140000D03*
X92190000Y-75680000D03*
X92190000Y-78220000D03*
%TD*%
D15*
%TO.C,U3*%
X75850000Y-36700000D03*
D16*
X75850000Y-39240000D03*
X75850000Y-41780000D03*
X75850000Y-44320000D03*
X75850000Y-46860000D03*
X75850000Y-49400000D03*
X75850000Y-51940000D03*
X75850000Y-54480000D03*
X75850000Y-57020000D03*
X75850000Y-59560000D03*
X75850000Y-62100000D03*
X75850000Y-64640000D03*
X75850000Y-67180000D03*
X75850000Y-69720000D03*
X75850000Y-72260000D03*
X75850000Y-74800000D03*
X75850000Y-77340000D03*
X75850000Y-79880000D03*
X75850000Y-82420000D03*
X50453680Y-82417280D03*
X50453680Y-79877280D03*
X50450000Y-77340000D03*
X50450000Y-74800000D03*
X50450000Y-72260000D03*
X50450000Y-69720000D03*
X50450000Y-67180000D03*
X50450000Y-64640000D03*
X50450000Y-62100000D03*
X50450000Y-59560000D03*
X50450000Y-57020000D03*
X50450000Y-54480000D03*
X50450000Y-51940000D03*
X50450000Y-49400000D03*
X50450000Y-46860000D03*
X50450000Y-44320000D03*
X50450000Y-41780000D03*
X50450000Y-39240000D03*
X50450000Y-36700000D03*
%TD*%
M02*
