ISO-10303-21;
HEADER;
FILE_DESCRIPTION(('STEP AP214'),'1');
FILE_NAME('result.stp','2026-05-18T19:31:38',(' '),(' '),'Spatial InterOp 3D',' ',' ');
FILE_SCHEMA(('automotive_design'));
ENDSEC;
DATA;
#1=MECHANICAL_DESIGN_GEOMETRIC_PRESENTATION_REPRESENTATION(' ',(#148,#178,#208,#238,#268,#298,#328,#358,#388,#418,#448,#478),#6);
#2=PRODUCT_DEFINITION_CONTEXT('',#7,'design');
#3=APPLICATION_PROTOCOL_DEFINITION('INTERNATIONAL STANDARD','automotive_design',1994,#7);
#4=PRODUCT_CATEGORY_RELATIONSHIP('NONE','NONE',#8,#9);
#5=SHAPE_DEFINITION_REPRESENTATION(#10,#11);
#6= (GEOMETRIC_REPRESENTATION_CONTEXT(3)GLOBAL_UNCERTAINTY_ASSIGNED_CONTEXT((#12))GLOBAL_UNIT_ASSIGNED_CONTEXT((#13,#14,#15))REPRESENTATION_CONTEXT('NONE','WORKSPACE'));
#7=APPLICATION_CONTEXT(' ');
#8=PRODUCT_CATEGORY('part','NONE');
#9=PRODUCT_RELATED_PRODUCT_CATEGORY('detail',' ',(#17));
#10=PRODUCT_DEFINITION_SHAPE('NONE','NONE',#18);
#11=MANIFOLD_SURFACE_SHAPE_REPRESENTATION('Root',(#16,#19),#6);
#12=UNCERTAINTY_MEASURE_WITH_UNIT(LENGTH_MEASURE(1.0E-006),#13,'','');
#13=(CONVERSION_BASED_UNIT('METRE',#20)LENGTH_UNIT()NAMED_UNIT(#21));
#14=(NAMED_UNIT(#22)PLANE_ANGLE_UNIT()SI_UNIT($,.RADIAN.));
#15=(NAMED_UNIT(#22)SOLID_ANGLE_UNIT()SI_UNIT($,.STERADIAN.));
#16=SHELL_BASED_SURFACE_MODEL('Root',(#29));
#17=PRODUCT('Root','Root','Root',(#23));
#18=PRODUCT_DEFINITION('NONE','NONE',#24,#2);
#19=AXIS2_PLACEMENT_3D('',#25,#26,#27);
#20=LENGTH_MEASURE_WITH_UNIT(LENGTH_MEASURE(1.0),#28);
#21=DIMENSIONAL_EXPONENTS(1.0,0.0,0.0,0.0,0.0,0.0,0.0);
#22=DIMENSIONAL_EXPONENTS(0.0,0.0,0.0,0.0,0.0,0.0,0.0);
#23=PRODUCT_CONTEXT('',#7,'mechanical');
#24=PRODUCT_DEFINITION_FORMATION_WITH_SPECIFIED_SOURCE(' ','NONE',#17,.NOT_KNOWN.);
#25=CARTESIAN_POINT('',(0.0,0.0,0.0));
#26=DIRECTION('',(0.0,0.0,1.0));
#27=DIRECTION('',(1.0,0.0,0.0));
#28= (NAMED_UNIT(#21)LENGTH_UNIT()SI_UNIT(.MILLI.,.METRE.));
#29=CLOSED_SHELL('',(#156,#186,#216,#246,#276,#306,#336,#366,#396,#426,#456,#486));
#100=CARTESIAN_POINT('',(21.599998474,14.199996948,0.000000000));
#101=VERTEX_POINT('',#100);
#102=CARTESIAN_POINT('',(21.599998474,0.000000000,0.000000000));
#103=VERTEX_POINT('',#102);
#104=CARTESIAN_POINT('',(0.000000000,0.000000000,0.000000000));
#105=VERTEX_POINT('',#104);
#106=CARTESIAN_POINT('',(0.000000000,14.199996948,0.000000000));
#107=VERTEX_POINT('',#106);
#108=CARTESIAN_POINT('',(21.599998474,14.199996948,1.600000024));
#109=VERTEX_POINT('',#108);
#110=CARTESIAN_POINT('',(0.000000000,14.199996948,1.600000024));
#111=VERTEX_POINT('',#110);
#112=CARTESIAN_POINT('',(0.000000000,0.000000000,1.600000024));
#113=VERTEX_POINT('',#112);
#114=CARTESIAN_POINT('',(21.599998474,0.000000000,1.600000024));
#115=VERTEX_POINT('',#114);
#116=CARTESIAN_POINT('',(21.599998474,14.199996948,0.000000000));
#117=VERTEX_POINT('',#116);
#118=CARTESIAN_POINT('',(21.599998474,14.199996948,1.600000024));
#119=VERTEX_POINT('',#118);
#120=CARTESIAN_POINT('',(21.599998474,0.000000000,1.600000024));
#121=VERTEX_POINT('',#120);
#122=CARTESIAN_POINT('',(21.599998474,0.000000000,0.000000000));
#123=VERTEX_POINT('',#122);
#124=CARTESIAN_POINT('',(21.599998474,0.000000000,0.000000000));
#125=VERTEX_POINT('',#124);
#126=CARTESIAN_POINT('',(21.599998474,0.000000000,1.600000024));
#127=VERTEX_POINT('',#126);
#128=CARTESIAN_POINT('',(0.000000000,0.000000000,1.600000024));
#129=VERTEX_POINT('',#128);
#130=CARTESIAN_POINT('',(0.000000000,0.000000000,0.000000000));
#131=VERTEX_POINT('',#130);
#132=CARTESIAN_POINT('',(0.000000000,0.000000000,0.000000000));
#133=VERTEX_POINT('',#132);
#134=CARTESIAN_POINT('',(0.000000000,0.000000000,1.600000024));
#135=VERTEX_POINT('',#134);
#136=CARTESIAN_POINT('',(0.000000000,14.199996948,1.600000024));
#137=VERTEX_POINT('',#136);
#138=CARTESIAN_POINT('',(0.000000000,14.199996948,0.000000000));
#139=VERTEX_POINT('',#138);
#140=CARTESIAN_POINT('',(21.599998474,14.199996948,1.600000024));
#141=VERTEX_POINT('',#140);
#142=CARTESIAN_POINT('',(21.599998474,14.199996948,0.000000000));
#143=VERTEX_POINT('',#142);
#144=CARTESIAN_POINT('',(0.000000000,14.199996948,0.000000000));
#145=VERTEX_POINT('',#144);
#146=CARTESIAN_POINT('',(0.000000000,14.199996948,1.600000024));
#147=VERTEX_POINT('',#146);
#148=STYLED_ITEM('',(#149),#156);
#149=PRESENTATION_STYLE_ASSIGNMENT((#150));
#150=SURFACE_STYLE_USAGE(.BOTH.,#151);
#151=SURFACE_SIDE_STYLE('',(#152));
#152=SURFACE_STYLE_FILL_AREA(#153);
#153=FILL_AREA_STYLE('',(#154));
#154=FILL_AREA_STYLE_COLOUR('',#155);
#155=COLOUR_RGB('',0.800000012,0.800000012,0.800000012);
#156=FACE_SURFACE('',(#161),#157,.T.);
#157=PLANE('',#158);
#158=AXIS2_PLACEMENT_3D('',#100,#159,#160);
#159=DIRECTION('',(0.000000000,0.000000000,1.000000000));
#160=DIRECTION('',(-1.000000000,0.000000000,0.000000000));
#161=FACE_BOUND('',#162,.T.);
#162=EDGE_LOOP('',(#163,#164,#165));
#163=ORIENTED_EDGE('',*,*,#166,.T.);
#164=ORIENTED_EDGE('',*,*,#167,.T.);
#165=ORIENTED_EDGE('',*,*,#168,.T.);
#166=EDGE_CURVE('',#101,#103,#169,.F.);
#167=EDGE_CURVE('',#103,#105,#170,.T.);
#168=EDGE_CURVE('',#105,#101,#171,.T.);
#169=LINE('',#100,#172);
#170=LINE('',#102,#173);
#171=LINE('',#104,#174);
#172=VECTOR('',#175,1.0);
#173=VECTOR('',#176,1.0);
#174=VECTOR('',#177,1.0);
#175=DIRECTION('',(0.000000000,-1.000000000,0.000000000));
#176=DIRECTION('',(-1.000000000,0.000000000,0.000000000));
#177=DIRECTION('',(0.835604012,0.549332201,0.000000000));
#178=STYLED_ITEM('',(#179),#186);
#179=PRESENTATION_STYLE_ASSIGNMENT((#180));
#180=SURFACE_STYLE_USAGE(.BOTH.,#181);
#181=SURFACE_SIDE_STYLE('',(#182));
#182=SURFACE_STYLE_FILL_AREA(#183);
#183=FILL_AREA_STYLE('',(#184));
#184=FILL_AREA_STYLE_COLOUR('',#185);
#185=COLOUR_RGB('',0.800000012,0.800000012,0.800000012);
#186=FACE_SURFACE('',(#191),#187,.T.);
#187=PLANE('',#188);
#188=AXIS2_PLACEMENT_3D('',#100,#189,#190);
#189=DIRECTION('',(0.000000000,-0.000000000,1.000000000));
#190=DIRECTION('',(0.000000000,1.000000000,0.000000000));
#191=FACE_BOUND('',#192,.T.);
#192=EDGE_LOOP('',(#193,#194,#195));
#193=ORIENTED_EDGE('',*,*,#196,.T.);
#194=ORIENTED_EDGE('',*,*,#197,.T.);
#195=ORIENTED_EDGE('',*,*,#198,.T.);
#196=EDGE_CURVE('',#101,#105,#199,.F.);
#197=EDGE_CURVE('',#105,#107,#200,.T.);
#198=EDGE_CURVE('',#107,#101,#201,.T.);
#199=LINE('',#100,#202);
#200=LINE('',#104,#203);
#201=LINE('',#106,#204);
#202=VECTOR('',#205,1.0);
#203=VECTOR('',#206,1.0);
#204=VECTOR('',#207,1.0);
#205=DIRECTION('',(-0.835604012,-0.549332201,0.000000000));
#206=DIRECTION('',(0.000000000,1.000000000,0.000000000));
#207=DIRECTION('',(1.000000000,0.000000000,0.000000000));
#208=STYLED_ITEM('',(#209),#216);
#209=PRESENTATION_STYLE_ASSIGNMENT((#210));
#210=SURFACE_STYLE_USAGE(.BOTH.,#211);
#211=SURFACE_SIDE_STYLE('',(#212));
#212=SURFACE_STYLE_FILL_AREA(#213);
#213=FILL_AREA_STYLE('',(#214));
#214=FILL_AREA_STYLE_COLOUR('',#215);
#215=COLOUR_RGB('',0.800000012,0.800000012,0.800000012);
#216=FACE_SURFACE('',(#221),#217,.T.);
#217=PLANE('',#218);
#218=AXIS2_PLACEMENT_3D('',#108,#219,#220);
#219=DIRECTION('',(-0.000000000,-0.000000000,-1.000000000));
#220=DIRECTION('',(0.000000000,-1.000000000,0.000000000));
#221=FACE_BOUND('',#222,.T.);
#222=EDGE_LOOP('',(#223,#224,#225));
#223=ORIENTED_EDGE('',*,*,#226,.T.);
#224=ORIENTED_EDGE('',*,*,#227,.T.);
#225=ORIENTED_EDGE('',*,*,#228,.T.);
#226=EDGE_CURVE('',#109,#111,#229,.F.);
#227=EDGE_CURVE('',#111,#113,#230,.T.);
#228=EDGE_CURVE('',#113,#109,#231,.T.);
#229=LINE('',#108,#232);
#230=LINE('',#110,#233);
#231=LINE('',#112,#234);
#232=VECTOR('',#235,1.0);
#233=VECTOR('',#236,1.0);
#234=VECTOR('',#237,1.0);
#235=DIRECTION('',(-1.000000000,0.000000000,0.000000000));
#236=DIRECTION('',(0.000000000,-1.000000000,0.000000000));
#237=DIRECTION('',(0.835604012,0.549332201,0.000000000));
#238=STYLED_ITEM('',(#239),#246);
#239=PRESENTATION_STYLE_ASSIGNMENT((#240));
#240=SURFACE_STYLE_USAGE(.BOTH.,#241);
#241=SURFACE_SIDE_STYLE('',(#242));
#242=SURFACE_STYLE_FILL_AREA(#243);
#243=FILL_AREA_STYLE('',(#244));
#244=FILL_AREA_STYLE_COLOUR('',#245);
#245=COLOUR_RGB('',0.800000012,0.800000012,0.800000012);
#246=FACE_SURFACE('',(#251),#247,.T.);
#247=PLANE('',#248);
#248=AXIS2_PLACEMENT_3D('',#108,#249,#250);
#249=DIRECTION('',(0.000000000,-0.000000000,-1.000000000));
#250=DIRECTION('',(1.000000000,0.000000000,0.000000000));
#251=FACE_BOUND('',#252,.T.);
#252=EDGE_LOOP('',(#253,#254,#255));
#253=ORIENTED_EDGE('',*,*,#256,.T.);
#254=ORIENTED_EDGE('',*,*,#257,.T.);
#255=ORIENTED_EDGE('',*,*,#258,.T.);
#256=EDGE_CURVE('',#109,#113,#259,.F.);
#257=EDGE_CURVE('',#113,#115,#260,.T.);
#258=EDGE_CURVE('',#115,#109,#261,.T.);
#259=LINE('',#108,#262);
#260=LINE('',#112,#263);
#261=LINE('',#114,#264);
#262=VECTOR('',#265,1.0);
#263=VECTOR('',#266,1.0);
#264=VECTOR('',#267,1.0);
#265=DIRECTION('',(-0.835604012,-0.549332201,0.000000000));
#266=DIRECTION('',(1.000000000,0.000000000,0.000000000));
#267=DIRECTION('',(0.000000000,1.000000000,0.000000000));
#268=STYLED_ITEM('',(#269),#276);
#269=PRESENTATION_STYLE_ASSIGNMENT((#270));
#270=SURFACE_STYLE_USAGE(.BOTH.,#271);
#271=SURFACE_SIDE_STYLE('',(#272));
#272=SURFACE_STYLE_FILL_AREA(#273);
#273=FILL_AREA_STYLE('',(#274));
#274=FILL_AREA_STYLE_COLOUR('',#275);
#275=COLOUR_RGB('',0.800000012,0.800000012,0.800000012);
#276=FACE_SURFACE('',(#281),#277,.T.);
#277=PLANE('',#278);
#278=AXIS2_PLACEMENT_3D('',#116,#279,#280);
#279=DIRECTION('',(-1.000000000,0.000000000,0.000000000));
#280=DIRECTION('',(0.000000000,-1.000000000,0.000000000));
#281=FACE_BOUND('',#282,.T.);
#282=EDGE_LOOP('',(#283,#284,#285));
#283=ORIENTED_EDGE('',*,*,#286,.T.);
#284=ORIENTED_EDGE('',*,*,#287,.T.);
#285=ORIENTED_EDGE('',*,*,#288,.T.);
#286=EDGE_CURVE('',#117,#119,#289,.F.);
#287=EDGE_CURVE('',#119,#121,#290,.T.);
#288=EDGE_CURVE('',#121,#117,#291,.T.);
#289=LINE('',#116,#292);
#290=LINE('',#118,#293);
#291=LINE('',#120,#294);
#292=VECTOR('',#295,1.0);
#293=VECTOR('',#296,1.0);
#294=VECTOR('',#297,1.0);
#295=DIRECTION('',(0.000000000,0.000000000,1.000000000));
#296=DIRECTION('',(0.000000000,-1.000000000,0.000000000));
#297=DIRECTION('',(0.000000000,0.993711889,-0.111967564));
#298=STYLED_ITEM('',(#299),#306);
#299=PRESENTATION_STYLE_ASSIGNMENT((#300));
#300=SURFACE_STYLE_USAGE(.BOTH.,#301);
#301=SURFACE_SIDE_STYLE('',(#302));
#302=SURFACE_STYLE_FILL_AREA(#303);
#303=FILL_AREA_STYLE('',(#304));
#304=FILL_AREA_STYLE_COLOUR('',#305);
#305=COLOUR_RGB('',0.800000012,0.800000012,0.800000012);
#306=FACE_SURFACE('',(#311),#307,.T.);
#307=PLANE('',#308);
#308=AXIS2_PLACEMENT_3D('',#116,#309,#310);
#309=DIRECTION('',(-0.999999940,-0.000000000,-0.000000000));
#310=DIRECTION('',(0.000000000,0.000000000,-1.000000000));
#311=FACE_BOUND('',#312,.T.);
#312=EDGE_LOOP('',(#313,#314,#315));
#313=ORIENTED_EDGE('',*,*,#316,.T.);
#314=ORIENTED_EDGE('',*,*,#317,.T.);
#315=ORIENTED_EDGE('',*,*,#318,.T.);
#316=EDGE_CURVE('',#117,#121,#319,.F.);
#317=EDGE_CURVE('',#121,#123,#320,.T.);
#318=EDGE_CURVE('',#123,#117,#321,.T.);
#319=LINE('',#116,#322);
#320=LINE('',#120,#323);
#321=LINE('',#122,#324);
#322=VECTOR('',#325,1.0);
#323=VECTOR('',#326,1.0);
#324=VECTOR('',#327,1.0);
#325=DIRECTION('',(0.000000000,-0.993711889,0.111967564));
#326=DIRECTION('',(0.000000000,0.000000000,-1.000000000));
#327=DIRECTION('',(0.000000000,1.000000000,0.000000000));
#328=STYLED_ITEM('',(#329),#336);
#329=PRESENTATION_STYLE_ASSIGNMENT((#330));
#330=SURFACE_STYLE_USAGE(.BOTH.,#331);
#331=SURFACE_SIDE_STYLE('',(#332));
#332=SURFACE_STYLE_FILL_AREA(#333);
#333=FILL_AREA_STYLE('',(#334));
#334=FILL_AREA_STYLE_COLOUR('',#335);
#335=COLOUR_RGB('',0.800000012,0.800000012,0.800000012);
#336=FACE_SURFACE('',(#341),#337,.T.);
#337=PLANE('',#338);
#338=AXIS2_PLACEMENT_3D('',#124,#339,#340);
#339=DIRECTION('',(0.000000000,1.000000000,-0.000000000));
#340=DIRECTION('',(-1.000000000,0.000000000,0.000000000));
#341=FACE_BOUND('',#342,.T.);
#342=EDGE_LOOP('',(#343,#344,#345));
#343=ORIENTED_EDGE('',*,*,#346,.T.);
#344=ORIENTED_EDGE('',*,*,#347,.T.);
#345=ORIENTED_EDGE('',*,*,#348,.T.);
#346=EDGE_CURVE('',#125,#127,#349,.F.);
#347=EDGE_CURVE('',#127,#129,#350,.T.);
#348=EDGE_CURVE('',#129,#125,#351,.T.);
#349=LINE('',#124,#352);
#350=LINE('',#126,#353);
#351=LINE('',#128,#354);
#352=VECTOR('',#355,1.0);
#353=VECTOR('',#356,1.0);
#354=VECTOR('',#357,1.0);
#355=DIRECTION('',(0.000000000,0.000000000,1.000000000));
#356=DIRECTION('',(-1.000000000,0.000000000,0.000000000));
#357=DIRECTION('',(0.997267842,0.000000000,-0.073871695));
#358=STYLED_ITEM('',(#359),#366);
#359=PRESENTATION_STYLE_ASSIGNMENT((#360));
#360=SURFACE_STYLE_USAGE(.BOTH.,#361);
#361=SURFACE_SIDE_STYLE('',(#362));
#362=SURFACE_STYLE_FILL_AREA(#363);
#363=FILL_AREA_STYLE('',(#364));
#364=FILL_AREA_STYLE_COLOUR('',#365);
#365=COLOUR_RGB('',0.800000012,0.800000012,0.800000012);
#366=FACE_SURFACE('',(#371),#367,.T.);
#367=PLANE('',#368);
#368=AXIS2_PLACEMENT_3D('',#124,#369,#370);
#369=DIRECTION('',(0.000000000,1.000000000,0.000000000));
#370=DIRECTION('',(0.000000000,0.000000000,-1.000000000));
#371=FACE_BOUND('',#372,.T.);
#372=EDGE_LOOP('',(#373,#374,#375));
#373=ORIENTED_EDGE('',*,*,#376,.T.);
#374=ORIENTED_EDGE('',*,*,#377,.T.);
#375=ORIENTED_EDGE('',*,*,#378,.T.);
#376=EDGE_CURVE('',#125,#129,#379,.F.);
#377=EDGE_CURVE('',#129,#131,#380,.T.);
#378=EDGE_CURVE('',#131,#125,#381,.T.);
#379=LINE('',#124,#382);
#380=LINE('',#128,#383);
#381=LINE('',#130,#384);
#382=VECTOR('',#385,1.0);
#383=VECTOR('',#386,1.0);
#384=VECTOR('',#387,1.0);
#385=DIRECTION('',(-0.997267842,0.000000000,0.073871695));
#386=DIRECTION('',(0.000000000,0.000000000,-1.000000000));
#387=DIRECTION('',(1.000000000,0.000000000,0.000000000));
#388=STYLED_ITEM('',(#389),#396);
#389=PRESENTATION_STYLE_ASSIGNMENT((#390));
#390=SURFACE_STYLE_USAGE(.BOTH.,#391);
#391=SURFACE_SIDE_STYLE('',(#392));
#392=SURFACE_STYLE_FILL_AREA(#393);
#393=FILL_AREA_STYLE('',(#394));
#394=FILL_AREA_STYLE_COLOUR('',#395);
#395=COLOUR_RGB('',0.800000012,0.800000012,0.800000012);
#396=FACE_SURFACE('',(#401),#397,.T.);
#397=PLANE('',#398);
#398=AXIS2_PLACEMENT_3D('',#132,#399,#400);
#399=DIRECTION('',(1.000000000,0.000000000,0.000000000));
#400=DIRECTION('',(0.000000000,1.000000000,0.000000000));
#401=FACE_BOUND('',#402,.T.);
#402=EDGE_LOOP('',(#403,#404,#405));
#403=ORIENTED_EDGE('',*,*,#406,.T.);
#404=ORIENTED_EDGE('',*,*,#407,.T.);
#405=ORIENTED_EDGE('',*,*,#408,.T.);
#406=EDGE_CURVE('',#133,#135,#409,.F.);
#407=EDGE_CURVE('',#135,#137,#410,.T.);
#408=EDGE_CURVE('',#137,#133,#411,.T.);
#409=LINE('',#132,#412);
#410=LINE('',#134,#413);
#411=LINE('',#136,#414);
#412=VECTOR('',#415,1.0);
#413=VECTOR('',#416,1.0);
#414=VECTOR('',#417,1.0);
#415=DIRECTION('',(0.000000000,0.000000000,1.000000000));
#416=DIRECTION('',(0.000000000,1.000000000,0.000000000));
#417=DIRECTION('',(0.000000000,-0.993711889,-0.111967564));
#418=STYLED_ITEM('',(#419),#426);
#419=PRESENTATION_STYLE_ASSIGNMENT((#420));
#420=SURFACE_STYLE_USAGE(.BOTH.,#421);
#421=SURFACE_SIDE_STYLE('',(#422));
#422=SURFACE_STYLE_FILL_AREA(#423);
#423=FILL_AREA_STYLE('',(#424));
#424=FILL_AREA_STYLE_COLOUR('',#425);
#425=COLOUR_RGB('',0.800000012,0.800000012,0.800000012);
#426=FACE_SURFACE('',(#431),#427,.T.);
#427=PLANE('',#428);
#428=AXIS2_PLACEMENT_3D('',#132,#429,#430);
#429=DIRECTION('',(0.999999940,-0.000000000,0.000000000));
#430=DIRECTION('',(0.000000000,0.000000000,-1.000000000));
#431=FACE_BOUND('',#432,.T.);
#432=EDGE_LOOP('',(#433,#434,#435));
#433=ORIENTED_EDGE('',*,*,#436,.T.);
#434=ORIENTED_EDGE('',*,*,#437,.T.);
#435=ORIENTED_EDGE('',*,*,#438,.T.);
#436=EDGE_CURVE('',#133,#137,#439,.F.);
#437=EDGE_CURVE('',#137,#139,#440,.T.);
#438=EDGE_CURVE('',#139,#133,#441,.T.);
#439=LINE('',#132,#442);
#440=LINE('',#136,#443);
#441=LINE('',#138,#444);
#442=VECTOR('',#445,1.0);
#443=VECTOR('',#446,1.0);
#444=VECTOR('',#447,1.0);
#445=DIRECTION('',(0.000000000,0.993711889,0.111967564));
#446=DIRECTION('',(0.000000000,0.000000000,-1.000000000));
#447=DIRECTION('',(0.000000000,-1.000000000,0.000000000));
#448=STYLED_ITEM('',(#449),#456);
#449=PRESENTATION_STYLE_ASSIGNMENT((#450));
#450=SURFACE_STYLE_USAGE(.BOTH.,#451);
#451=SURFACE_SIDE_STYLE('',(#452));
#452=SURFACE_STYLE_FILL_AREA(#453);
#453=FILL_AREA_STYLE('',(#454));
#454=FILL_AREA_STYLE_COLOUR('',#455);
#455=COLOUR_RGB('',0.800000012,0.800000012,0.800000012);
#456=FACE_SURFACE('',(#461),#457,.T.);
#457=PLANE('',#458);
#458=AXIS2_PLACEMENT_3D('',#140,#459,#460);
#459=DIRECTION('',(-0.000000000,-1.000000000,-0.000000000));
#460=DIRECTION('',(-1.000000000,0.000000000,0.000000000));
#461=FACE_BOUND('',#462,.T.);
#462=EDGE_LOOP('',(#463,#464,#465));
#463=ORIENTED_EDGE('',*,*,#466,.T.);
#464=ORIENTED_EDGE('',*,*,#467,.T.);
#465=ORIENTED_EDGE('',*,*,#468,.T.);
#466=EDGE_CURVE('',#141,#143,#469,.F.);
#467=EDGE_CURVE('',#143,#145,#470,.T.);
#468=EDGE_CURVE('',#145,#141,#471,.T.);
#469=LINE('',#140,#472);
#470=LINE('',#142,#473);
#471=LINE('',#144,#474);
#472=VECTOR('',#475,1.0);
#473=VECTOR('',#476,1.0);
#474=VECTOR('',#477,1.0);
#475=DIRECTION('',(0.000000000,0.000000000,-1.000000000));
#476=DIRECTION('',(-1.000000000,0.000000000,0.000000000));
#477=DIRECTION('',(0.997267842,0.000000000,0.073871695));
#478=STYLED_ITEM('',(#479),#486);
#479=PRESENTATION_STYLE_ASSIGNMENT((#480));
#480=SURFACE_STYLE_USAGE(.BOTH.,#481);
#481=SURFACE_SIDE_STYLE('',(#482));
#482=SURFACE_STYLE_FILL_AREA(#483);
#483=FILL_AREA_STYLE('',(#484));
#484=FILL_AREA_STYLE_COLOUR('',#485);
#485=COLOUR_RGB('',0.800000012,0.800000012,0.800000012);
#486=FACE_SURFACE('',(#491),#487,.T.);
#487=PLANE('',#488);
#488=AXIS2_PLACEMENT_3D('',#140,#489,#490);
#489=DIRECTION('',(-0.000000000,-1.000000000,0.000000000));
#490=DIRECTION('',(0.000000000,0.000000000,1.000000000));
#491=FACE_BOUND('',#492,.T.);
#492=EDGE_LOOP('',(#493,#494,#495));
#493=ORIENTED_EDGE('',*,*,#496,.T.);
#494=ORIENTED_EDGE('',*,*,#497,.T.);
#495=ORIENTED_EDGE('',*,*,#498,.T.);
#496=EDGE_CURVE('',#141,#145,#499,.F.);
#497=EDGE_CURVE('',#145,#147,#500,.T.);
#498=EDGE_CURVE('',#147,#141,#501,.T.);
#499=LINE('',#140,#502);
#500=LINE('',#144,#503);
#501=LINE('',#146,#504);
#502=VECTOR('',#505,1.0);
#503=VECTOR('',#506,1.0);
#504=VECTOR('',#507,1.0);
#505=DIRECTION('',(-0.997267842,0.000000000,-0.073871695));
#506=DIRECTION('',(0.000000000,0.000000000,1.000000000));
#507=DIRECTION('',(1.000000000,0.000000000,0.000000000));
ENDSEC;
END-ISO-10303-21;
